<?xml version="1.0" encoding="UTF-8"?> <svg xmlns="http://www.w3.org/2000/svg" width="666" height="558" viewBox="0 0 666 558" fill="none"><mask id="mask0" maskUnits="userSpaceOnUse" x="8" y="0" width="657" height="558"><path d="M659.76 230.69C650.26 148.87 546.22 136.09 513.41 73.6702C496.64 41.7502 467.9 17.5602 433.04 8.33017C346.45 -14.5898 243.93 22.4602 223.18 34.3702C154.18 68.0102 124.32 145.15 70.5598 198.79C39.3898 229.89 18.1998 269.74 11.6898 313.29C-42.3402 674.95 735.35 623.27 659.76 230.69Z" fill="white"></path></mask><g mask="url(#mask0)"><path d="M659.76 230.69C650.26 148.87 546.22 136.09 513.41 73.6702C496.64 41.7502 467.9 17.5602 433.04 8.33017C346.45 -14.5898 243.93 22.4602 223.18 34.3702C154.18 68.0102 124.32 145.15 70.5598 198.79C39.3898 229.89 18.1998 269.74 11.6898 313.29C-42.3402 674.95 735.35 623.27 659.76 230.69Z" fill="white"></path><g clip-path="url(#clip0)"><path d="M358.22 534.79V383.24C358.22 368.56 346.32 356.66 331.64 356.66H310.95H148.29C133.61 356.66 121.71 368.56 121.71 383.24V519.86C126.99 522.51 132.39 525.01 137.92 527.37C137.95 527.38 137.98 527.4 138.02 527.41C143.53 529.76 149.17 531.97 154.91 534.04C154.96 534.06 155.01 534.07 155.06 534.09C160.8 536.16 166.64 538.08 172.59 539.87C172.64 539.88 172.68 539.9 172.73 539.91C176.66 541.09 180.63 542.21 184.64 543.26C184.71 543.28 184.77 543.29 184.84 543.31C186.85 543.84 188.86 544.35 190.89 544.85C190.9 544.85 190.92 544.86 190.93 544.86C194.98 545.85 199.06 546.78 203.18 547.65C203.3 547.68 203.42 547.7 203.54 547.73C207.67 548.6 211.82 549.41 216.01 550.15C216.02 550.15 216.03 550.15 216.04 550.16C218.1 550.53 220.16 550.88 222.24 551.21C222.39 551.23 222.54 551.26 222.69 551.28C226.81 551.95 230.97 552.55 235.14 553.1C235.28 553.12 235.41 553.14 235.55 553.15C237.61 553.42 239.68 553.68 241.76 553.92C241.91 553.94 242.06 553.95 242.2 553.97C246.37 554.45 250.56 554.88 254.76 555.24C254.97 555.26 255.18 555.28 255.39 555.29C257.47 555.47 259.56 555.64 261.65 555.79C261.75 555.8 261.85 555.8 261.95 555.81C264.07 555.96 266.19 556.1 268.32 556.23C268.37 556.23 268.41 556.24 268.46 556.24C270.56 556.36 272.66 556.47 274.76 556.56C275.01 556.57 275.25 556.58 275.5 556.59C279.73 556.77 283.97 556.9 288.22 556.97C288.4 556.97 288.58 556.98 288.76 556.98C290.84 557.01 292.93 557.03 295.02 557.04C295.26 557.04 295.51 557.04 295.75 557.04C299.97 557.05 304.21 557 308.45 556.9C308.7 556.89 308.96 556.89 309.21 556.88C311.3 556.83 313.39 556.76 315.48 556.68C315.68 556.67 315.88 556.66 316.08 556.66C318.2 556.58 320.33 556.48 322.45 556.37C322.56 556.36 322.67 556.36 322.78 556.35C322.84 556.35 322.89 556.35 322.95 556.34C334.46 555.73 346 554.72 357.5 553.33C357.96 546.33 358.22 536.93 358.22 534.79Z" fill="url(#paint0_linear)"></path><path d="M659.76 230.69C650.26 148.87 546.22 136.09 513.41 73.6702C496.64 41.7502 467.9 17.5602 433.04 8.33017C346.45 -14.5898 243.93 22.4602 223.18 34.3702C154.18 68.0102 124.32 145.15 70.5598 198.79C39.3898 229.89 18.1998 269.74 11.6898 313.29C-42.3402 674.95 735.35 623.27 659.76 230.69Z" fill="white"></path><path d="M73.2497 556C73.1626 556 73.063 555.988 72.9759 555.975C72.3038 555.826 71.8806 555.155 72.03 554.485L144.531 233.974C144.68 233.303 145.34 232.881 146.024 233.03C146.696 233.179 147.119 233.85 146.97 234.52L74.457 555.031C74.3326 555.615 73.8098 556 73.2497 556Z" fill="#8FE0F2"></path><path d="M268.99 500.53C268.53 500.53 268.12 500.21 268.02 499.75L208.32 234.51C208.2 233.97 208.54 233.44 209.08 233.31C209.62 233.19 210.15 233.53 210.28 234.07L269.98 499.31C270.1 499.85 269.76 500.38 269.22 500.51C269.14 500.52 269.06 500.53 268.99 500.53Z" fill="#8FE0F2"></path><path d="M230.25 328.38C230 328.38 229.76 328.29 229.56 328.11L142.5 246.21C142.1 245.83 142.08 245.2 142.46 244.8C142.84 244.4 143.47 244.38 143.87 244.76L230.93 326.66C231.33 327.04 231.35 327.67 230.97 328.07C230.78 328.28 230.51 328.38 230.25 328.38Z" fill="#8FE0F2"></path><path d="M185 539.67C184.75 539.67 184.51 539.58 184.32 539.4L95.8203 456.61C95.4203 456.23 95.4003 455.6 95.7803 455.2C96.1603 454.8 96.7903 454.78 97.1903 455.16L185.69 537.95C186.09 538.33 186.11 538.96 185.73 539.36C185.54 539.57 185.27 539.67 185 539.67Z" fill="#8FE0F2"></path><path d="M127.83 247.11C127.28 247.11 126.83 246.66 126.83 246.11C126.83 239.04 132.58 233.29 139.65 233.29H214.92C215.47 233.29 215.92 233.74 215.92 234.29C215.92 234.84 215.47 235.29 214.92 235.29H139.65C133.68 235.29 128.83 240.14 128.83 246.11C128.83 246.66 128.38 247.11 127.83 247.11Z" fill="#8FE0F2"></path><path d="M358.22 534.79V383.24C358.22 368.56 346.32 356.66 331.64 356.66H310.95H148.29C133.61 356.66 121.71 368.56 121.71 383.24V519.86C126.99 522.51 132.39 525.01 137.92 527.37C137.95 527.38 137.98 527.4 138.02 527.41C143.53 529.76 149.17 531.97 154.91 534.04C154.96 534.06 155.01 534.07 155.06 534.09C160.8 536.16 166.64 538.08 172.59 539.87C172.64 539.88 172.68 539.9 172.73 539.91C176.66 541.09 180.63 542.21 184.64 543.26C184.71 543.28 184.77 543.29 184.84 543.31C186.85 543.84 188.86 544.35 190.89 544.85C190.9 544.85 190.92 544.86 190.93 544.86C194.98 545.85 199.06 546.78 203.18 547.65C203.3 547.68 203.42 547.7 203.54 547.73C207.67 548.6 211.82 549.41 216.01 550.15C216.02 550.15 216.03 550.15 216.04 550.16C218.1 550.53 220.16 550.88 222.24 551.21C222.39 551.23 222.54 551.26 222.69 551.28C226.81 551.95 230.97 552.55 235.14 553.1C235.28 553.12 235.41 553.14 235.55 553.15C237.61 553.42 239.68 553.68 241.76 553.92C241.91 553.94 242.06 553.95 242.2 553.97C246.37 554.45 250.56 554.88 254.76 555.24C254.97 555.26 255.18 555.28 255.39 555.29C257.47 555.47 259.56 555.64 261.65 555.79C261.75 555.8 261.85 555.8 261.95 555.81C264.07 555.96 266.19 556.1 268.32 556.23C268.37 556.23 268.41 556.24 268.46 556.24C270.56 556.36 272.66 556.47 274.76 556.56C275.01 556.57 275.25 556.58 275.5 556.59C279.73 556.77 283.97 556.9 288.22 556.97C288.4 556.97 288.58 556.98 288.76 556.98C290.84 557.01 292.93 557.03 295.02 557.04C295.26 557.04 295.51 557.04 295.75 557.04C299.97 557.05 304.21 557 308.45 556.9C308.7 556.89 308.96 556.89 309.21 556.88C311.3 556.83 313.39 556.76 315.48 556.68C315.68 556.67 315.88 556.66 316.08 556.66C318.2 556.58 320.33 556.48 322.45 556.37C322.56 556.36 322.67 556.36 322.78 556.35C322.84 556.35 322.89 556.35 322.95 556.34C334.46 555.73 346 554.72 357.5 553.33C357.96 546.33 358.22 536.93 358.22 534.79Z" fill="url(#paint1_linear)"></path><path d="M615.94 277.79H526.61C523.92 277.79 521.73 275.6 521.73 272.91V253.68C521.73 250.99 523.92 248.8 526.61 248.8H615.94C618.63 248.8 620.82 250.99 620.82 253.68V272.91C620.82 275.6 618.63 277.79 615.94 277.79ZM526.61 250.8C525.02 250.8 523.73 252.09 523.73 253.68V272.91C523.73 274.5 525.02 275.79 526.61 275.79H615.94C617.53 275.79 618.82 274.5 618.82 272.91V253.68C618.82 252.09 617.53 250.8 615.94 250.8H526.61Z" fill="#8FE0F2"></path><path d="M676.95 278H431.05C430.472 278 430 277.55 430 277C430 276.45 430.472 276 431.05 276H676.95C677.528 276 678 276.45 678 277C678 277.55 677.538 278 676.95 278Z" fill="#8FE0F2"></path><path d="M407 282C406.45 282 406 281.526 406 280.946V-9.94619C406 -10.5258 406.45 -11 407 -11C407.55 -11 408 -10.5258 408 -9.94619V280.946C408 281.526 407.55 282 407 282Z" fill="#8FE0F2"></path><path d="M572.79 275.13C579.76 259.17 568.06 241.31 550.65 241.31H332.36C299.34 241.31 269.36 260.59 255.66 290.63L185.64 444.13C175.1 467.25 192.05 485.24 217.46 485.24L481.01 485.36L572.79 275.13Z" fill="url(#paint2_linear)"></path><path d="M320.09 197.37C320.09 197.37 311.88 185.44 315.06 180.76C318.24 176.08 320.69 183.99 320.69 183.99" fill="#1BB9E8"></path><path d="M380.13 198.27C380.13 198.27 384.83 183.42 393.38 190.69C401.92 197.96 390.21 229.08 384.26 221.97C378.31 214.86 380.13 198.27 380.13 198.27Z" fill="#26257E"></path><path d="M477.29 292.13C475.47 286.37 472.57 280.97 468.5 276.5C460.69 267.91 449.49 262.77 437.45 262.77L427.28 262.78C415.37 262.8 403.79 258.08 395.77 249.28C390.66 243.68 387.16 237 387.61 229.34C390.88 172.88 388.33 156.86 350.22 157.07C309.38 157.3 318.5 224.73 318.82 226.9C319.95 234.58 322.38 236.06 323.47 238.93C325.92 245.42 337.53 248.5 342.27 249.98C337.26 256.59 330.05 262.87 321.76 262.93L298.06 263.02C282.87 263.05 268.23 268.72 256.98 278.93L204.58 326.51L249.54 401.9L238.82 431.37L385.42 457L422.87 356.65H497.72L477.29 292.13Z" fill="#02024E"></path><path opacity="0.5" d="M477.29 292.13C475.47 286.37 472.57 280.97 468.5 276.5C460.69 267.91 449.49 262.77 437.45 262.77H427.28C415.37 262.79 403.79 258.07 395.77 249.27C390.66 243.67 387.16 236.99 387.61 229.33C387.79 226.27 387.95 223.34 388.08 220.52C387.8 220.13 387.65 219.72 387.66 219.28C387.66 219.28 384.83 221.04 382.79 216.47L379.98 231.21C379.98 231.21 386.16 260.73 390.84 263.29C415.09 276.55 441.32 268.24 455.56 284.89C468.5 300.02 471.09 347.99 471.45 356.65H497.71L477.29 292.13Z" fill="url(#paint3_linear)"></path><path d="M259.26 351C259.23 351 259.2 351 259.17 351C258.62 350.95 258.21 350.47 258.26 349.92L262.21 304.01C262.26 303.46 262.74 303.04 263.29 303.1C263.84 303.15 264.25 303.63 264.2 304.18L260.25 350.09C260.21 350.61 259.78 351 259.26 351Z" fill="#1BB9E8"></path><path d="M615.15 58.1998C609.58 44.3498 582.83 27.6298 568.28 35.0298C548.04 42.3598 546.08 61.7198 548.59 80.8398C556.26 123.91 628.5 96.0998 615.15 58.1998Z" fill="white"></path><path d="M557.89 356.65H537.2H374.54C359.86 356.65 347.96 368.55 347.96 383.23V534.78L348.34 553.75C359.03 552.36 369.69 551.17 380.27 550.05C457.42 537.12 531.32 506.37 584.48 458.55V383.23C584.47 368.56 572.57 356.65 557.89 356.65Z" fill="url(#paint4_linear)"></path><path d="M503.848 44H407.152C406.518 44 406 43.55 406 43C406 42.45 406.518 42 407.152 42H503.848C504.482 42 505 42.45 505 43C505 43.55 504.482 44 503.848 44Z" fill="#8FE0F2"></path><path d="M458.08 151.18H438.85C436.71 151.18 434.97 149.44 434.97 147.3V57.9698C434.97 55.8298 436.71 54.0898 438.85 54.0898H458.08C460.22 54.0898 461.96 55.8298 461.96 57.9698V147.3C461.96 149.44 460.22 151.18 458.08 151.18Z" fill="url(#paint5_linear)"></path><path d="M485.17 151.18H465.94C463.8 151.18 462.06 149.44 462.06 147.3V57.9698C462.06 55.8298 463.8 54.0898 465.94 54.0898H485.17C487.31 54.0898 489.05 55.8298 489.05 57.9698V147.3C489.05 149.44 487.31 151.18 485.17 151.18Z" fill="url(#paint6_linear)"></path><path d="M615.939 152H407.061C406.477 152 406 151.55 406 151C406 150.45 406.477 150 407.061 150H615.939C616.523 150 617 150.45 617 151C617 151.55 616.533 152 615.939 152Z" fill="#8FE0F2"></path><path d="M330.25 222.3C330.25 222.3 339.71 219.5 345.66 222.4C351.61 225.3 346.57 233.69 342.56 233.39C338.55 233.09 339.93 229.72 337.77 230.33C335.6 230.94 336.35 234.6 333.5 233.69C330.64 232.77 320.78 225.27 330.25 222.3Z" fill="#26257E"></path><path d="M335.92 228.49C334.92 228.49 334.23 228.4 334.14 228.39C333.7 228.33 333.39 227.92 333.45 227.47C333.51 227.03 333.92 226.71 334.37 226.78C334.43 226.79 340.59 227.59 342.6 224.01C342.82 223.62 343.31 223.48 343.71 223.7C344.1 223.92 344.24 224.42 344.02 224.81C342.22 227.99 338.25 228.49 335.92 228.49Z" fill="#1BB9E8"></path><path d="M336.23 165.46C336.05 165.46 335.88 165.43 335.7 165.36C335.56 165.31 321.28 159.99 312.25 160.41C311.41 160.43 310.72 159.81 310.68 158.99C310.64 158.16 311.28 157.46 312.1 157.42C321.76 156.94 336.15 162.33 336.76 162.56C337.53 162.85 337.93 163.72 337.63 164.49C337.41 165.09 336.84 165.46 336.23 165.46Z" fill="#2F3866"></path><path d="M335.3 233.13C333.31 233.13 331.76 232.92 331.63 232.9C330.81 232.79 330.24 232.03 330.35 231.21C330.46 230.39 331.22 229.82 332.04 229.93C333.56 230.14 338.02 230.43 340.42 229.32C341.17 228.97 342.06 229.3 342.41 230.05C342.76 230.8 342.43 231.69 341.68 232.04C339.81 232.91 337.33 233.13 335.3 233.13Z" fill="#2F3866"></path><path d="M386 166.44C369.69 147.03 337.31 133.01 314.35 150.87C307.8 155.96 303.15 192.09 331.38 183.12C362.64 173.2 369.65 180.88 368.99 185.67L368.96 186.67C368.79 193.62 370.17 200.47 372.57 207C373.01 208.19 373.28 209.4 373.22 210.54C372.3 228.52 364.79 231.64 358.07 235.56H358.02C354.92 237.35 351.05 235.2 350.88 231.62C350.53 224.37 348.44 217.62 337.07 217.04C323.23 216.33 320.82 224.79 319.98 230.44C319.94 230.7 319.61 230.68 319.55 230.42C318.38 226.02 318.06 219.22 318.06 219.22C311.24 232.94 325.37 257.22 333.28 258.09C356.03 260.59 371.68 240.67 379.97 231.2C382.54 228.27 383.88 224.43 383.54 220.54C383.5 220.08 383.45 219.62 383.4 219.18C383.24 217.83 382.86 216.52 382.33 215.26C381.43 213.12 380.98 210.32 380.78 207.57C380.25 200.39 384.34 193.83 390.25 192.77C392.74 192.32 394.84 192.95 395.22 196.1C396.15 203.86 394.01 217.7 387.64 219.27L387.55 231.15C387.79 236.43 388.68 241.1 391.61 233.66C397.41 219.03 402.31 185.85 386 166.44Z" fill="#1BB9E8"></path><path d="M332.01 222.58C332.01 222.58 326.01 224.43 324.25 230.93C322.5 237.42 327.6 242.61 333.83 242.83C340.06 243.05 345.13 240.73 345.58 234.35C346.03 227.97 342.96 221.16 332.01 222.58Z" fill="#02024E"></path><path d="M329.96 230.57C329.41 230.57 328.96 230.13 328.96 229.58C328.96 229.03 329.4 228.58 329.95 228.57C330 228.57 334.52 228.52 338.61 227.19C339.14 227.02 339.7 227.31 339.87 227.83C340.04 228.36 339.75 228.92 339.23 229.09C334.84 230.51 330.16 230.56 329.96 230.57Z" fill="#1BB9E8"></path><path d="M330.48 200.81C330.48 200.81 330.49 206.45 328.15 210.6C326.68 213.2 324.31 220.76 327.15 221.41C329.99 222.06 338.49 221.92 337.82 217.44C337.16 212.95 333.13 214.85 333.13 214.85" fill="#02024E"></path><path d="M330.28 222.71C328.94 222.71 327.74 222.58 326.92 222.39C326.13 222.21 325.53 221.7 325.18 220.9C323.95 218.1 326.18 212.05 327.27 210.11C329.46 206.24 329.47 200.87 329.47 200.82C329.47 200.27 329.92 199.82 330.47 199.82C331.02 199.82 331.47 200.27 331.47 200.82C331.47 201.06 331.46 206.77 329.01 211.1C327.72 213.39 326.27 218.44 327.01 220.1C327.13 220.37 327.26 220.42 327.36 220.45C329.5 220.94 334.5 220.84 336.26 219.22C336.74 218.78 336.92 218.26 336.82 217.6C336.67 216.6 336.33 215.94 335.81 215.66C335.05 215.25 333.92 215.6 333.55 215.77C333.05 216 332.46 215.78 332.22 215.28C331.99 214.78 332.2 214.19 332.7 213.95C332.93 213.84 334.97 212.93 336.75 213.88C337.87 214.48 338.56 215.63 338.8 217.29C338.99 218.61 338.59 219.78 337.62 220.67C335.97 222.21 332.88 222.71 330.28 222.71Z" fill="#1BB9E8"></path><path d="M331.33 291.9C327.97 291.9 324.99 290.73 322.44 288.42C314.22 280.94 313.36 264.06 313.33 263.34C313.31 262.79 313.73 262.32 314.28 262.3C314.83 262.24 315.3 262.7 315.32 263.25C315.33 263.42 316.18 280.03 323.78 286.94C326.1 289.05 328.84 290.05 331.95 289.88C347.98 289.09 419.04 261.55 419.76 261.27C420.27 261.06 420.85 261.32 421.05 261.84C421.25 262.36 420.99 262.93 420.48 263.13C417.54 264.27 348.4 291.07 332.04 291.87C331.81 291.89 331.57 291.9 331.33 291.9Z" fill="#1BB9E8"></path><path d="M317.53 408.66C316.32 408.66 315.13 408.17 314.26 407.25L308.95 401.59C307.79 400.36 307.08 398.8 306.88 397.15L302.04 393.72C299.31 391.79 298.39 388.2 299.86 385.19L303.11 378.52L296.76 380.87L293.95 398.03C293.57 400.34 291.54 402.06 289.2 402.06C289.18 402.06 289.15 402.06 289.13 402.06C287.8 402.04 286.52 401.46 285.63 400.48C284.74 399.49 284.29 398.16 284.41 396.84L286.4 374.08C286.6 371.84 287.74 369.77 289.54 368.42L299.97 360.59C305.14 356.71 311.76 355.09 318.13 356.12L367.23 364.11C367.77 364.2 368.15 364.71 368.06 365.26C367.97 365.8 367.45 366.17 366.91 366.09L317.81 358.1C311.97 357.15 305.9 358.64 301.17 362.19L290.74 370.02C289.39 371.03 288.54 372.57 288.39 374.25L286.4 397.01C286.33 397.8 286.59 398.55 287.12 399.14C287.65 399.73 288.38 400.06 289.17 400.07C290.55 400.05 291.76 399.08 291.99 397.71L294.89 379.98C294.95 379.62 295.19 379.33 295.53 379.2L304.76 375.78C305.14 375.64 305.57 375.74 305.85 376.05C306.13 376.36 306.19 376.79 306.01 377.16L301.67 386.07C300.64 388.19 301.28 390.73 303.21 392.09L306.75 394.6L308.91 376.61C308.97 376.06 309.47 375.67 310.02 375.74C310.57 375.8 310.96 376.29 310.9 376.84L308.88 395.59C308.7 397.29 309.26 398.98 310.43 400.23L315.74 405.89C316.45 406.65 317.58 406.88 318.54 406.46C319.23 406.16 319.74 405.56 319.94 404.83C320.13 404.1 319.98 403.33 319.53 402.72L313.61 394.77C313.33 394.4 313.35 393.88 313.65 393.53L319.3 386.86C319.59 386.52 320.06 386.41 320.47 386.59C320.88 386.77 321.11 387.2 321.05 387.64L320.2 393.79C320.12 394.35 320.48 394.87 321.03 395L329.88 397.12C331 397.39 332.15 396.78 332.55 395.69C332.76 395.11 332.74 394.49 332.47 393.94C332.21 393.38 331.75 392.97 331.17 392.76L325.94 391.44C325.43 391.31 325.11 390.81 325.2 390.29C325.3 389.77 325.78 389.42 326.31 389.48L332.45 390.25C337.2 390.84 341.92 389.28 345.38 385.97C345.78 385.59 346.41 385.6 346.79 386C347.17 386.4 347.16 387.03 346.76 387.41C343.26 390.76 338.63 392.54 333.84 392.36C334.01 392.59 334.16 392.83 334.28 393.09C334.77 394.13 334.82 395.3 334.42 396.38C333.67 398.42 331.52 399.57 329.41 399.06L320.56 396.94C319 396.57 318 395.09 318.21 393.51L318.59 390.76L315.67 394.2L321.11 401.51C321.93 402.61 322.2 404 321.85 405.32C321.5 406.64 320.58 407.72 319.33 408.27C318.75 408.54 318.14 408.66 317.53 408.66Z" fill="#1BB9E8"></path><path d="M319.51 392.41C319.45 392.41 319.4 392.41 319.34 392.4C318.8 392.31 318.43 391.79 318.52 391.25L320.75 378.03C320.84 377.49 321.36 377.12 321.9 377.21C322.44 377.3 322.81 377.82 322.72 378.36L320.49 391.58C320.41 392.07 319.99 392.41 319.51 392.41Z" fill="#1BB9E8"></path><path d="M429.6 357.84C429.18 357.84 428.79 357.57 428.65 357.15L418.46 325.61C418.29 325.08 418.58 324.52 419.1 324.35C419.63 324.18 420.19 324.47 420.36 324.99L430.55 356.53C430.72 357.06 430.43 357.62 429.91 357.79C429.8 357.82 429.7 357.84 429.6 357.84Z" fill="#1BB9E8"></path><path d="M455.57 385.55C455.57 369.59 442.63 356.66 426.68 356.66H374.54C359.86 356.66 347.96 368.56 347.96 383.24V534.79L348.27 554.39C384.83 550.62 421.2 542.88 455.57 531.26V385.55Z" fill="url(#paint7_linear)"></path><path d="M331.46 428.2L254.41 413.74C251.27 413.15 249.2 410.13 249.79 406.98C250.38 403.84 253.4 401.77 256.55 402.36L333.6 416.82C336.74 417.41 338.81 420.43 338.22 423.58C337.63 426.72 334.6 428.79 331.46 428.2Z" fill="url(#paint8_linear)"></path><path opacity="0.5" d="M331.46 428.2L254.41 413.74C251.27 413.15 249.2 410.13 249.79 406.98C250.38 403.84 253.4 401.77 256.55 402.36L333.6 416.82C336.74 417.41 338.81 420.43 338.22 423.58C337.63 426.72 334.6 428.79 331.46 428.2Z" fill="url(#paint9_linear)"></path><path d="M248.57 315.86L279.16 390.24C284.02 402.07 275.33 415.05 262.54 415.05H144.84C137.55 415.05 130.99 410.65 128.22 403.91L97.6299 329.53C92.7699 317.7 101.46 304.72 114.25 304.72H231.94C239.23 304.72 245.79 309.12 248.57 315.86Z" fill="url(#paint10_linear)"></path><path opacity="0.5" d="M279.15 390.24L248.56 315.86C245.79 309.12 239.22 304.72 231.94 304.72H220.75C228.04 304.72 234.6 309.12 237.37 315.86L267.96 390.24C272.82 402.07 264.13 415.05 251.34 415.05H262.53C275.32 415.05 284.02 402.07 279.15 390.24Z" fill="url(#paint11_linear)"></path><path d="M191.948 370.563C194.765 367.004 192.444 360.473 186.762 355.976C181.08 351.479 174.191 350.719 171.373 354.279C168.556 357.838 170.878 364.37 176.559 368.866C182.241 373.363 189.131 374.123 191.948 370.563Z" fill="#1BB9E8"></path><path d="M305.1 377.73C304.93 377.73 304.77 377.69 304.61 377.6C304.13 377.33 303.96 376.72 304.23 376.24L306.03 373.02C306.3 372.54 306.91 372.37 307.39 372.64C307.87 372.91 308.04 373.52 307.77 374L305.97 377.22C305.79 377.54 305.45 377.73 305.1 377.73Z" fill="#1BB9E8"></path><path d="M292.05 368.8C291.95 368.8 291.85 368.79 291.75 368.76L287.62 367.48C285.18 366.72 283.39 364.59 283.06 362.05C282.96 361.24 283.18 360.44 283.69 359.8C284.2 359.16 284.93 358.77 285.74 358.68L309.51 356.31C310.07 356.26 310.55 356.66 310.6 357.21C310.65 357.76 310.25 358.25 309.7 358.3L285.93 360.67C285.66 360.7 285.42 360.83 285.25 361.04C285.08 361.25 285.01 361.52 285.04 361.79C285.26 363.55 286.5 365.03 288.2 365.56L292.33 366.84C292.86 367 293.15 367.56 292.99 368.09C292.87 368.52 292.48 368.8 292.05 368.8Z" fill="#1BB9E8"></path><path d="M386.47 329.57C386.26 329.51 386.04 329.62 386.03 329.85L385.92 333.23C385.92 333.36 386.02 333.47 386.14 333.47H386.87C386.98 333.47 387.07 333.39 387.09 333.28C387.27 332.11 387.54 330.62 387.55 330.41C387.56 330.26 387.51 330.12 387.43 330.02C387.28 329.83 386.86 329.67 386.47 329.57Z" fill="white"></path><path d="M391.1 323.94C391.19 324.04 391.35 324.02 391.4 323.89C391.81 322.84 393.11 318.98 391.07 316.05C391.02 315.98 390.91 316.02 390.92 316.11C391.04 317.19 391.32 320.77 390.12 322.49C390.06 322.58 390.07 322.69 390.13 322.77L391.1 323.94Z" fill="white"></path><path d="M388.7 322.56C388.7 322.56 386.47 321.02 384.76 319.85C383.71 319.13 382.83 318.5 382.72 318.43C382.2 318.11 381.93 317.69 381.87 317.2C381.85 317.04 381.83 316.7 381.83 316.7C381.83 316.44 381.87 316.16 381.99 315.86C381.99 315.85 381.99 315.84 382 315.83C382.13 315.44 382.2 315.02 382.2 314.59C382.2 314.58 382.2 314.57 382.2 314.56C382.2 314.56 382.2 314.56 382.2 314.55C382.2 314.53 382.2 314.51 382.2 314.49C382.03 311.71 381.01 308.98 379.4 306.95C379.32 306.85 379.15 306.91 379.15 307.04L379.14 310.63C378.93 310.54 378.15 310.56 377.9 310.6C377.44 309.54 376.86 308.74 376.16 307.86C376.08 307.76 375.91 307.82 375.91 307.95L375.82 311.09C375.82 311.09 375.82 311.15 375.8 311.17C375.27 311.63 375.07 313.06 374.83 313.33C374.38 313.83 372.35 315.42 371.87 315.93C371.5 316.32 371.42 316.75 373.16 318.48C373.74 319.04 374.55 318.86 374.55 318.86L377.1 318.3C377.28 318.26 377.41 318.38 377.36 318.56C377.35 318.63 377.32 318.71 377.3 318.79C377.23 319.01 376.75 320.36 376.38 321.38C375.83 322.74 375.39 323.55 375.55 325.19L376.46 333.26C376.46 333.26 376.57 333.48 376.68 333.48H377.47C377.59 333.48 377.69 333.37 377.69 333.25C377.73 332.06 377.8 329.49 377.86 328.16C377.92 327.06 378.32 326.34 379.44 326.53C380.19 326.73 381.02 326.98 381.02 328.15L381.16 333.25C381.16 333.37 381.26 333.48 381.38 333.48H382.54C382.65 333.48 382.74 333.39 382.76 333.28C382.89 332.63 383.06 331.92 383.24 331.21C383.87 329.09 384.3 327.94 387.41 328.9C387.41 328.9 389.81 329.77 389.62 331.83C389.59 332.12 389.55 332.52 389.5 333.22C389.49 333.35 389.59 333.48 389.72 333.48H390.72C390.82 333.48 390.91 333.4 390.93 333.3C391.11 332.57 391.31 331.69 391.4 331.26C392 328.45 391.94 324.95 388.7 322.56Z" fill="white"></path><path d="M185.66 469.35L96.0698 429.8L155.76 407.66L205.95 431L185.66 469.35Z" fill="#02024E"></path><path opacity="0.5" d="M343.37 517.57C345.59 519.49 348.69 520.35 352.22 520.52C373.78 521.54 387.82 496.94 375.99 478.89C374.05 475.93 371.73 473.7 368.95 472.76L365.96 471.78C346.79 465.48 329.2 455.62 313.84 442.56C310.6 439.26 306.12 437.67 301.28 438.12L297.21 438.5C290.17 439.16 283.27 444.01 279.17 451.2C275.07 458.39 274.39 466.79 277.41 473.19L279.15 476.89C281.22 481.29 284.86 484.34 289.35 485.45C308.4 492.05 325.83 502.18 341 515.49L343.37 517.57Z" fill="url(#paint12_linear)"></path><path d="M258.16 493.8L322.23 490.88C332.22 490.3 341.38 485.84 347.96 478.76V435.3L212.47 426.26C193.48 425.15 178.45 442.11 181.86 460.83L197.45 546.41C217.66 550.99 238.74 554.09 260.29 555.71L258.16 493.8Z" fill="#02024E"></path><path opacity="0.5" d="M257.66 474.74L250.53 471.98L244.2 554.22C249.53 554.81 254.9 555.31 260.3 555.72L258.16 493.81L258.28 493.8L257.66 474.74Z" fill="url(#paint13_linear)"></path><path d="M187.68 493.74C187.2 493.74 186.77 493.39 186.69 492.9L182.43 466.85C181.73 462.55 181.88 458.22 182.89 453.98C183.02 453.44 183.56 453.11 184.09 453.24C184.63 453.37 184.96 453.91 184.83 454.44C183.88 458.42 183.74 462.49 184.4 466.53L188.66 492.58C188.75 493.12 188.38 493.64 187.83 493.73C187.79 493.74 187.73 493.74 187.68 493.74Z" fill="#1BB9E8"></path><path d="M342.83 500.71C345.37 502.18 348.58 502.45 352.08 501.95C373.45 498.92 382.65 472.14 367.65 456.62C365.19 454.08 362.49 452.31 359.59 451.91L356.46 451.5C336.45 448.89 317.33 442.49 299.8 432.54C296 429.9 291.3 429.18 286.63 430.53L282.7 431.66C275.91 433.62 270.04 439.67 267.35 447.5C264.66 455.33 265.57 463.71 269.72 469.43L272.12 472.74C274.98 476.67 279.12 478.99 283.74 479.25C303.69 482.17 322.7 488.87 340.1 499.11L342.83 500.71Z" fill="white"></path><path d="M337.15 496.85C339.56 498.24 342.61 498.5 345.93 498.04C366.19 495.26 374.83 470.11 360.55 455.47C358.21 453.07 355.65 451.41 352.89 451.02L349.92 450.63C330.93 448.11 312.78 442.04 296.12 432.62C292.51 430.12 288.05 429.44 283.62 430.69L279.9 431.74C273.46 433.56 267.92 439.23 265.39 446.59C262.86 453.94 263.75 461.82 267.71 467.22L270 470.34C272.72 474.05 276.66 476.24 281.04 476.49C299.97 479.3 318.02 485.66 334.55 495.35L337.15 496.85Z" fill="url(#paint14_linear)"></path><path d="M346.95 474.34C346.95 474.34 345.52 491.28 351.64 496.57C367.67 490.33 373.39 468.66 360.55 455.48C360.55 455.48 353.41 457.03 346.95 474.34Z" fill="#02024E"></path><path d="M123.7 358.79L289.64 420.58L294 440.43L289.64 456.44L283.34 469.36L274.46 475.91L105.46 432.28C84.3398 429.51 69.5998 409.96 72.7298 388.9C76.2898 364.93 101.01 350.34 123.7 358.79Z" fill="#02024E"></path><path d="M259.87 544.22C259.33 544.22 258.89 543.8 258.87 543.26L256.66 483.15C256.64 482.6 257.07 482.13 257.62 482.11C258.16 482.07 258.64 482.52 258.66 483.07L260.87 543.18C260.89 543.73 260.46 544.2 259.91 544.22C259.89 544.22 259.88 544.22 259.87 544.22Z" fill="#1BB9E8"></path><path d="M351.53 497.56C351.22 497.56 350.92 497.42 350.72 497.15C342.8 486.28 343.33 471.81 352.02 461.14C354.13 458.55 356.84 456.35 360.07 454.59C360.56 454.33 361.16 454.51 361.43 454.99C361.69 455.48 361.51 456.08 361.03 456.35C358.03 457.98 355.53 460.01 353.58 462.4C345.46 472.35 344.97 485.84 352.34 495.97C352.67 496.42 352.57 497.04 352.12 497.37C351.94 497.5 351.74 497.56 351.53 497.56Z" fill="#02024E"></path><path d="M301.62 472.3C301.46 472.3 301.29 472.26 301.14 472.18C300.66 471.91 300.48 471.3 300.75 470.82C301.11 470.17 309.63 454.82 318.87 449.62C319.35 449.35 319.96 449.52 320.23 450C320.5 450.48 320.33 451.09 319.85 451.36C311.1 456.29 302.58 471.63 302.5 471.78C302.32 472.12 301.98 472.3 301.62 472.3Z" fill="#02024E"></path><path d="M317.81 480.86C317.65 480.86 317.48 480.82 317.33 480.74C316.85 480.47 316.67 479.86 316.94 479.38C317.3 478.73 325.82 463.38 335.06 458.18C335.54 457.91 336.15 458.08 336.42 458.56C336.69 459.04 336.52 459.65 336.04 459.92C327.29 464.85 318.77 480.19 318.69 480.34C318.51 480.67 318.17 480.86 317.81 480.86Z" fill="#02024E"></path><path d="M309.96 478.08C309.56 478.08 309.19 477.84 309.03 477.45C305.12 467.59 308.14 450.3 308.27 449.57C308.37 449.03 308.89 448.66 309.43 448.76C309.97 448.86 310.34 449.38 310.24 449.92C310.21 450.09 307.19 467.38 310.89 476.71C311.09 477.22 310.84 477.8 310.33 478.01C310.21 478.05 310.08 478.08 309.96 478.08Z" fill="#02024E"></path><path d="M327.92 481.6C327.52 481.6 327.15 481.36 326.99 480.97C323.08 471.11 326.1 453.82 326.23 453.09C326.33 452.55 326.85 452.18 327.39 452.28C327.93 452.38 328.3 452.9 328.2 453.44C328.17 453.61 325.15 470.9 328.85 480.23C329.05 480.74 328.8 481.32 328.29 481.53C328.17 481.58 328.05 481.6 327.92 481.6Z" fill="#02024E"></path><path d="M266 479.35C265.47 479.35 265.02 478.93 265 478.39C264.98 477.84 265.41 477.37 265.96 477.35C272.03 477.1 277.1 473.41 280.28 470.36C286.39 464.5 290.65 456.4 292.26 447.57C293.79 439.23 293.02 430.28 290.03 421.68C289.85 421.16 290.13 420.59 290.65 420.41C291.17 420.23 291.74 420.5 291.92 421.03C295.02 429.95 295.82 439.26 294.23 447.94C292.54 457.18 288.08 465.66 281.66 471.81C278.23 475.1 272.74 479.08 266.04 479.35C266.03 479.35 266.01 479.35 266 479.35Z" fill="#1BB9E8"></path><path d="M266 479.35C265.86 479.35 265.72 479.32 265.58 479.26C243.48 469.11 222.25 464.11 199.76 458.82C186.7 455.74 173.19 452.56 159.34 448.27C145.99 444.13 132.69 439.24 119.82 434.51C119.3 434.32 119.04 433.75 119.23 433.23C119.42 432.71 120 432.44 120.51 432.64C133.36 437.36 146.64 442.24 159.94 446.36C173.73 450.64 187.2 453.81 200.23 456.88C222.81 462.2 244.14 467.22 266.42 477.45C266.92 477.68 267.14 478.27 266.91 478.78C266.74 479.13 266.38 479.35 266 479.35Z" fill="#1BB9E8"></path><path opacity="0.5" d="M289.67 458.89C289.67 458.89 267.56 431.8 220.47 418.56C173.38 405.32 127.35 360.15 127.35 360.15L290.44 420.82C290.44 420.82 298.25 438.87 289.67 458.89Z" fill="url(#paint15_linear)"></path><path opacity="0.5" d="M387.67 219.28C394.03 217.71 396.18 203.86 395.25 196.11C395.04 194.36 394.29 193.39 393.25 192.95C395.04 201.53 390.09 215.95 385.43 219.44C386.67 219.89 387.67 219.28 387.67 219.28Z" fill="url(#paint16_linear)"></path><path d="M469.4 526.97C468.85 526.97 468.4 526.52 468.4 525.97V483.12C468.4 482.57 468.85 482.12 469.4 482.12C469.95 482.12 470.4 482.57 470.4 483.12V525.97C470.4 526.53 469.95 526.97 469.4 526.97Z" fill="#8FE0F2"></path><path d="M483.89 521.46C483.34 521.46 482.89 521.01 482.89 520.46V483.12C482.89 482.57 483.34 482.12 483.89 482.12C484.44 482.12 484.89 482.57 484.89 483.12V520.46C484.89 521.01 484.44 521.46 483.89 521.46Z" fill="#8FE0F2"></path><path d="M553.87 484.12H459.14C458.59 484.12 458.14 483.67 458.14 483.12V469.36C458.14 468.81 458.59 468.36 459.14 468.36H571.27C571.82 468.36 572.27 468.81 572.27 469.36C572.27 469.91 571.82 470.36 571.27 470.36H460.14V482.12H553.87C554.42 482.12 554.87 482.57 554.87 483.12C554.87 483.67 554.42 484.12 553.87 484.12Z" fill="#8FE0F2"></path><path d="M176.94 185.08C176.58 184.62 176.24 184.15 175.94 183.65C175.39 182.75 174.98 181.79 174.71 180.82C174.19 178.87 174.33 176.93 175.09 174.76C175.56 173.32 176.28 171.81 177 170.2C176.27 169.26 175.45 168.31 174.52 167.24C174.44 167.15 174.36 167.04 174.28 166.95C173.18 168.78 171.82 170.6 170.65 172.84C170.01 174.12 169.45 175.55 169.15 177.1C168.83 178.64 168.8 180.28 168.99 181.82C169.18 183.38 169.57 184.87 170.08 186.31C170.6 187.75 171.29 189.13 172.02 190.37C172.07 190.45 172.12 190.52 172.17 190.6C173.19 189.33 174.19 188.22 175.07 187.23C175.77 186.46 176.38 185.77 176.94 185.08Z" fill="#02024E"></path><path d="M179.59 199.12C179.38 199.31 179.19 199.53 178.99 199.73C179.12 199.95 179.25 200.17 179.37 200.4H185.1C185.05 198.43 184.57 196.51 183.84 194.75C183.81 194.78 183.79 194.82 183.76 194.85C182.28 196.56 180.83 197.9 179.59 199.12Z" fill="#26257E"></path><path d="M172.18 190.62C171.84 191.05 171.49 191.5 171.14 191.96C169.77 193.81 168.49 196.06 167.64 198.25C166.78 200.47 166.23 202.74 165.95 205.01C165.88 205.61 165.83 206.22 165.8 206.82H173.71C175.26 204.1 177 201.72 178.99 199.72C178.33 198.59 177.54 197.52 176.65 196.45C175.3 194.83 173.64 193.01 172.18 190.62Z" fill="#02024E"></path><path d="M188.38 173.02C186.43 168.06 182.72 164.72 179.82 162.14C179.64 161.98 179.47 161.83 179.29 161.67C178.48 160.95 177.72 160.23 177.05 159.49C175.5 157.81 174.33 156.06 173.75 153.97C172.82 150.8 173.17 146.94 174.44 143.46C175.72 139.92 178.04 136.64 180.47 133.39L179.65 132.64C176.62 135.31 173.53 138.17 171.31 141.95C169.13 145.72 167.82 150.17 168.3 154.98C168.58 157.38 169.43 159.73 170.59 161.8C171.68 163.75 173 165.43 174.27 166.96C174.35 167.06 174.43 167.16 174.51 167.25C175.44 168.32 176.26 169.27 176.99 170.21C177.36 170.68 177.71 171.16 178.03 171.64C178.97 173.06 179.64 174.48 179.97 175.84C180.63 178.54 179.76 181.11 178.05 183.58C177.71 184.1 177.33 184.59 176.93 185.09C177.23 185.47 177.54 185.85 177.88 186.24C179.35 187.93 181.15 189.81 182.65 192.38C183.09 193.13 183.48 193.93 183.83 194.76C185.28 193.11 186.73 190.98 187.76 188.68C188.78 186.32 189.49 183.74 189.64 181.02C189.8 178.29 189.36 175.48 188.38 173.02Z" fill="#02024E"></path><path d="M177.89 186.23C177.55 185.84 177.23 185.47 176.94 185.08C176.38 185.76 175.77 186.45 175.08 187.25C174.2 188.25 173.2 189.35 172.18 190.62C173.64 193 175.31 194.83 176.65 196.46C177.54 197.53 178.33 198.6 178.99 199.73C179.19 199.53 179.38 199.31 179.59 199.12C180.83 197.9 182.27 196.55 183.76 194.85C183.79 194.82 183.81 194.78 183.84 194.75C183.49 193.92 183.1 193.11 182.66 192.37C181.16 189.8 179.37 187.92 177.89 186.23Z" fill="#02024E"></path><path opacity="0.5" d="M176.73 202.29C176.97 201.98 177.22 201.66 177.47 201.36C178.14 200.56 178.85 199.81 179.59 199.12C180.83 197.9 182.27 196.55 183.76 194.85C184.25 194.3 184.74 193.68 185.22 193.03C186.18 191.72 187.07 190.24 187.77 188.68C188.79 186.32 189.5 183.74 189.65 181.02C189.81 178.3 189.36 175.48 188.38 173.03C186.43 168.07 182.72 164.73 179.82 162.15C179.11 161.53 178.45 160.93 177.83 160.31C177.83 160.32 177.82 160.32 177.82 160.33C177.34 161.43 177.59 162.7 178.48 163.52C181.06 165.9 183.9 168.9 185.52 173.04C186.49 175.5 186.94 178.31 186.79 181.03C186.64 183.75 185.93 186.34 184.91 188.69C184.56 189.47 184.17 190.22 183.74 190.95C182.88 192.42 181.89 193.76 180.9 194.87C179.42 196.58 177.97 197.92 176.73 199.14C176.52 199.33 176.32 199.54 176.12 199.74C175.33 200.53 174.58 201.39 173.86 202.31H176.73V202.29Z" fill="url(#paint17_linear)"></path><path d="M180.6 133.14C177.63 133.2 174.8 131.58 172.83 129.36C170.86 127.13 169.63 124.35 168.64 121.55C167.65 118.75 166.87 115.86 165.63 113.16C165.01 111.81 164.05 110.35 162.57 110.21C161.71 110.13 160.85 110.55 160.25 111.18C159.65 111.81 159.27 112.61 158.99 113.44C157.73 117.14 158.3 121.35 160.23 124.74C162.16 128.13 165.37 130.72 168.99 132.18C172.61 133.64 176.62 134.02 180.5 133.59" fill="url(#paint18_linear)"></path><path d="M180 133.14C182.97 133.2 185.8 131.58 187.77 129.36C189.74 127.13 190.97 124.35 191.96 121.55C192.95 118.75 193.73 115.86 194.97 113.16C195.59 111.81 196.55 110.35 198.03 110.21C198.89 110.13 199.75 110.55 200.35 111.18C200.95 111.81 201.33 112.61 201.61 113.44C202.87 117.14 202.3 121.35 200.37 124.74C198.44 128.13 195.23 130.72 191.61 132.18C187.99 133.64 183.98 134.02 180.1 133.59" fill="url(#paint19_linear)"></path><path d="M179.84 132.93C181.43 135.44 184.34 136.91 187.29 137.32C190.23 137.74 193.23 137.22 196.12 136.5C199 135.77 201.84 134.83 204.78 134.37C206.25 134.14 207.99 134.13 208.93 135.29C209.47 135.97 209.6 136.91 209.41 137.76C209.22 138.61 208.75 139.37 208.22 140.05C205.83 143.14 202.01 144.99 198.12 145.26C194.22 145.52 190.3 144.27 187.08 142.06C183.86 139.85 181.33 136.72 179.55 133.24" fill="url(#paint20_linear)"></path><path d="M180.22 133.14C181.56 134.22 183.43 134.47 185.12 134.15C186.81 133.82 188.36 132.98 189.8 132.04C191.24 131.1 192.62 130.05 194.14 129.25C194.9 128.85 195.86 128.52 196.58 128.97C197.01 129.24 197.25 129.73 197.31 130.23C197.37 130.73 197.25 131.23 197.09 131.71C196.36 133.85 194.62 135.58 192.54 136.46C190.46 137.34 188.07 137.39 185.89 136.79C183.71 136.18 181.74 134.94 180.11 133.38" fill="url(#paint21_linear)"></path><path d="M179.94 133.3C178.86 131.96 178.61 130.09 178.93 128.4C179.25 126.71 180.1 125.16 181.04 123.72C181.98 122.28 183.03 120.9 183.83 119.38C184.23 118.62 184.56 117.66 184.11 116.94C183.84 116.51 183.35 116.27 182.85 116.21C182.35 116.15 181.85 116.27 181.37 116.43C179.23 117.16 177.5 118.9 176.62 120.98C175.74 123.06 175.69 125.45 176.29 127.63C176.9 129.81 178.14 131.78 179.7 133.41" fill="url(#paint22_linear)"></path><path d="M179.36 133.23C178.13 134.44 176.3 134.88 174.58 134.73C172.86 134.58 171.24 133.89 169.71 133.1C168.18 132.31 166.7 131.41 165.11 130.76C164.31 130.44 163.33 130.2 162.65 130.73C162.25 131.04 162.06 131.56 162.06 132.06C162.06 132.56 162.22 133.05 162.43 133.51C163.37 135.57 165.28 137.12 167.44 137.78C169.6 138.44 171.98 138.25 174.09 137.43C176.2 136.61 178.03 135.17 179.5 133.45" fill="url(#paint23_linear)"></path><path d="M181.94 134.27C181.61 134.98 180.41 135.11 179.26 134.57C178.11 134.03 177.46 133.02 177.79 132.31C178.12 131.6 179.32 131.47 180.47 132.01C181.61 132.55 182.27 133.56 181.94 134.27Z" fill="url(#paint24_linear)"></path><path opacity="0.5" d="M176.94 185.08C176.58 184.61 176.24 184.15 175.94 183.65C175.39 182.75 174.98 181.79 174.71 180.82C174.19 178.87 174.33 176.93 175.09 174.76C175.11 174.7 175.13 174.65 175.15 174.59C175.62 173.2 176.31 171.75 177 170.2C176.73 169.85 176.44 169.5 176.14 169.15C175.49 170.68 174.79 172.12 174.24 173.49C174.07 173.92 173.91 174.34 173.77 174.76C173.01 176.92 172.87 178.87 173.39 180.82C173.65 181.79 174.07 182.76 174.62 183.65C175.15 184.53 177.06 185.23 177 185.17C176.99 185.14 176.96 185.11 176.94 185.08Z" fill="url(#paint25_linear)"></path><path d="M469.24 443.61V465.17C469.24 467.48 471.11 469.36 473.43 469.36H571.83C573.53 467.99 575.22 466.61 576.88 465.21H474.91V443.57H579.79V439.42H473.43C471.12 439.42 469.24 441.3 469.24 443.61Z" fill="url(#paint26_linear)"></path><path d="M504.03 439.42C501.72 439.42 499.84 441.29 499.84 443.61V465.17C499.84 467.48 501.71 469.36 504.03 469.36H571.83C573.53 467.99 575.22 466.61 576.88 465.21H505.51V443.57H599.92C601.22 442.2 602.51 440.82 603.78 439.42H504.03Z" fill="#1BB9E8"></path><path d="M513.8 443.57V465.21H576.88C585.01 458.37 592.71 451.16 599.92 443.57H513.8Z" fill="url(#paint27_linear)"></path><path d="M569.76 443.57H474.91V465.21H569.76V443.57Z" fill="white"></path><path d="M474.91 443.57V465.21H477.63V449.39C477.63 447.25 479.34 445.5 481.48 445.45L569.75 443.57H474.91Z" fill="url(#paint28_linear)"></path><path d="M469.24 443.61V465.17C469.24 467.48 471.11 469.36 473.43 469.36H571.83C573.53 467.99 575.22 466.61 576.88 465.21H474.91V443.57H579.79V439.42H473.43C471.12 439.42 469.24 441.3 469.24 443.61Z" fill="url(#paint29_linear)"></path><path d="M569.49 394.19H558.16V398.64H568.28C569.17 398.64 569.88 399.37 569.87 400.26L569.62 413.57C569.62 416.46 569.58 418.81 566.69 418.81H558.16V423.26H567.12C571.29 423.26 574.67 419.88 574.67 415.71V399.38C574.67 396.51 572.35 394.19 569.49 394.19Z" fill="#02024E"></path><path opacity="0.5" d="M514.41 386.35C514.41 386.35 505.12 378.89 516.09 373.1C527.06 367.31 534.36 365.32 531.93 358.31C529.5 351.3 518.43 352.79 520.72 343.65C522.61 336.09 535.33 332.85 539.66 331.95C540.13 331.85 540.48 332.38 540.21 332.78C538.2 335.63 534.48 343.68 547.83 352.58C574.21 370.16 544.3 360.73 554.48 384.66C556.75 390.06 514.41 386.35 514.41 386.35Z" fill="url(#paint30_linear)"></path><path d="M557.73 382.88H509.92C508.69 382.88 507.69 383.88 507.69 385.11V437.19C507.69 438.42 508.69 439.42 509.92 439.42H557.73C558.96 439.42 559.96 438.42 559.96 437.19V385.11C559.96 383.88 558.96 382.88 557.73 382.88Z" fill="url(#paint31_linear)"></path><path d="M177.16 194.17H147.3L156.09 229.63C156.62 231.76 158.52 233.25 160.71 233.25H177.16H193.61C195.8 233.25 197.71 231.76 198.23 229.63L207.02 194.17H177.16Z" fill="#1BB9E8"></path><path d="M206.1 199.2H147.92C146.45 199.2 145.27 198.01 145.27 196.55V195.45C145.27 193.98 146.46 192.8 147.92 192.8H206.1C207.57 192.8 208.75 193.99 208.75 195.45V196.55C208.75 198.01 207.56 199.2 206.1 199.2Z" fill="#1BB9E8"></path><path d="M206.01 200.2H148C147.45 200.2 147 199.75 147 199.2C147 198.65 147.45 198.2 148 198.2H206.01C206.56 198.2 207.01 198.65 207.01 199.2C207.01 199.75 206.56 200.2 206.01 200.2Z" fill="#02024E"></path><path opacity="0.5" d="M559.96 387.59V385.11C559.96 383.88 558.96 382.88 557.73 382.88H526.83C528.06 382.88 529.06 383.88 529.06 385.11V437.19C529.06 438.42 528.06 439.42 526.83 439.42H557.73C558.96 439.42 559.96 438.42 559.96 437.19V387.59Z" fill="url(#paint32_linear)"></path></g></g><defs><linearGradient id="paint0_linear" x1="121.705" y1="456.858" x2="358.218" y2="456.858" gradientUnits="userSpaceOnUse"><stop stop-color="#F2E3FD"></stop><stop offset="1" stop-color="#B9EAF8"></stop></linearGradient><linearGradient id="paint1_linear" x1="121.705" y1="456.858" x2="358.218" y2="456.858" gradientUnits="userSpaceOnUse"><stop stop-color="#F2E3FD"></stop><stop offset="1" stop-color="#B9EAF8"></stop></linearGradient><linearGradient id="paint2_linear" x1="182.465" y1="363.327" x2="574.83" y2="363.327" gradientUnits="userSpaceOnUse"><stop stop-color="#F2E3FD"></stop><stop offset="1" stop-color="#B9EAF8"></stop></linearGradient><linearGradient id="paint3_linear" x1="462.19" y1="212.164" x2="358.052" y2="565.49" gradientUnits="userSpaceOnUse"><stop offset="4.47534e-07" stop-color="#B45FF9"></stop><stop offset="0.4798" stop-color="#1BB9E8"></stop><stop offset="0.6283" stop-color="#1BBCE5"></stop><stop offset="0.7572" stop-color="#1CC4DA"></stop><stop offset="0.8786" stop-color="#1ED2C8"></stop><stop offset="0.9952" stop-color="#21E5AF"></stop><stop offset="1" stop-color="#21E6AE"></stop></linearGradient><linearGradient id="paint4_linear" x1="347.961" y1="455.207" x2="584.473" y2="455.207" gradientUnits="userSpaceOnUse"><stop stop-color="#F2E3FD"></stop><stop offset="1" stop-color="#B9EAF8"></stop></linearGradient><linearGradient id="paint5_linear" x1="448.465" y1="135.662" x2="448.465" y2="59.9388" gradientUnits="userSpaceOnUse"><stop stop-color="#F2E3FD"></stop><stop offset="1" stop-color="#B9EAF8"></stop></linearGradient><linearGradient id="paint6_linear" x1="475.554" y1="58.4957" x2="475.554" y2="139.507" gradientUnits="userSpaceOnUse"><stop stop-color="#F2E3FD"></stop><stop offset="1" stop-color="#B9EAF8"></stop></linearGradient><linearGradient id="paint7_linear" x1="347.961" y1="455.522" x2="455.574" y2="455.522" gradientUnits="userSpaceOnUse"><stop stop-color="#F2E3FD"></stop><stop offset="1" stop-color="#B9EAF8"></stop></linearGradient><linearGradient id="paint8_linear" x1="249.841" y1="407.026" x2="338.271" y2="423.616" gradientUnits="userSpaceOnUse"><stop stop-color="#F2E3FD"></stop><stop offset="1" stop-color="#B9EAF8"></stop></linearGradient><linearGradient id="paint9_linear" x1="261.69" y1="305.002" x2="305.678" y2="455.127" gradientUnits="userSpaceOnUse"><stop offset="4.47534e-07" stop-color="#B45FF9"></stop><stop offset="0.4798" stop-color="#1BB9E8"></stop><stop offset="0.6283" stop-color="#1BBCE5"></stop><stop offset="0.7572" stop-color="#1CC4DA"></stop><stop offset="0.8786" stop-color="#1ED2C8"></stop><stop offset="0.9952" stop-color="#21E5AF"></stop><stop offset="1" stop-color="#21E6AE"></stop></linearGradient><linearGradient id="paint10_linear" x1="172.951" y1="301.332" x2="200.778" y2="406.866" gradientUnits="userSpaceOnUse"><stop stop-color="#F2E3FD"></stop><stop offset="1" stop-color="#B9EAF8"></stop></linearGradient><linearGradient id="paint11_linear" x1="238.666" y1="311.749" x2="282.654" y2="461.874" gradientUnits="userSpaceOnUse"><stop offset="4.47534e-07" stop-color="#B45FF9"></stop><stop offset="0.4798" stop-color="#1BB9E8"></stop><stop offset="0.6283" stop-color="#1BBCE5"></stop><stop offset="0.7572" stop-color="#1CC4DA"></stop><stop offset="0.8786" stop-color="#1ED2C8"></stop><stop offset="0.9952" stop-color="#21E5AF"></stop><stop offset="1" stop-color="#21E6AE"></stop></linearGradient><linearGradient id="paint12_linear" x1="407.924" y1="525.508" x2="240.643" y2="427.478" gradientUnits="userSpaceOnUse"><stop offset="4.47534e-07" stop-color="#B45FF9"></stop><stop offset="0.4798" stop-color="#1BB9E8"></stop><stop offset="0.6283" stop-color="#1BBCE5"></stop><stop offset="0.7572" stop-color="#1CC4DA"></stop><stop offset="0.8786" stop-color="#1ED2C8"></stop><stop offset="0.9952" stop-color="#21E5AF"></stop><stop offset="1" stop-color="#21E6AE"></stop></linearGradient><linearGradient id="paint13_linear" x1="351.528" y1="187.757" x2="250.043" y2="532.08" gradientUnits="userSpaceOnUse"><stop offset="4.47534e-07" stop-color="#B45FF9"></stop><stop offset="0.4798" stop-color="#1BB9E8"></stop><stop offset="0.6283" stop-color="#1BBCE5"></stop><stop offset="0.7572" stop-color="#1CC4DA"></stop><stop offset="0.8786" stop-color="#1ED2C8"></stop><stop offset="0.9952" stop-color="#21E5AF"></stop><stop offset="1" stop-color="#21E6AE"></stop></linearGradient><linearGradient id="paint14_linear" x1="292.634" y1="452.763" x2="350.085" y2="479.484" gradientUnits="userSpaceOnUse"><stop offset="4.47534e-07" stop-color="#B45FF9"></stop><stop offset="0.4798" stop-color="#1BB9E8"></stop><stop offset="0.6283" stop-color="#1BBCE5"></stop><stop offset="0.7572" stop-color="#1CC4DA"></stop><stop offset="0.8786" stop-color="#1ED2C8"></stop><stop offset="0.9952" stop-color="#21E5AF"></stop><stop offset="1" stop-color="#21E6AE"></stop></linearGradient><linearGradient id="paint15_linear" x1="282.467" y1="159.193" x2="178.329" y2="512.519" gradientUnits="userSpaceOnUse"><stop offset="4.47534e-07" stop-color="#B45FF9"></stop><stop offset="0.4798" stop-color="#1BB9E8"></stop><stop offset="0.6283" stop-color="#1BBCE5"></stop><stop offset="0.7572" stop-color="#1CC4DA"></stop><stop offset="0.8786" stop-color="#1ED2C8"></stop><stop offset="0.9952" stop-color="#21E5AF"></stop><stop offset="1" stop-color="#21E6AE"></stop></linearGradient><linearGradient id="paint16_linear" x1="396.295" y1="192.742" x2="292.157" y2="546.068" gradientUnits="userSpaceOnUse"><stop offset="4.47534e-07" stop-color="#B45FF9"></stop><stop offset="0.4798" stop-color="#1BB9E8"></stop><stop offset="0.6283" stop-color="#1BBCE5"></stop><stop offset="0.7572" stop-color="#1CC4DA"></stop><stop offset="0.8786" stop-color="#1ED2C8"></stop><stop offset="0.9952" stop-color="#21E5AF"></stop><stop offset="1" stop-color="#21E6AE"></stop></linearGradient><linearGradient id="paint17_linear" x1="144.599" y1="158.032" x2="314.183" y2="284.274" gradientUnits="userSpaceOnUse"><stop offset="4.47534e-07" stop-color="#B45FF9"></stop><stop offset="0.4798" stop-color="#1BB9E8"></stop><stop offset="0.6978" stop-color="#1BBBE6"></stop><stop offset="0.8039" stop-color="#1CC1DE"></stop><stop offset="0.8858" stop-color="#1DCBD1"></stop><stop offset="0.955" stop-color="#1FD9BF"></stop><stop offset="1" stop-color="#21E6AE"></stop></linearGradient><linearGradient id="paint18_linear" x1="174.127" y1="136.727" x2="161.237" y2="110.478" gradientUnits="userSpaceOnUse"><stop offset="4.47534e-07" stop-color="#B45FF9"></stop><stop offset="0.4991" stop-color="#1BB9E8"></stop><stop offset="1" stop-color="#21E6AE"></stop></linearGradient><linearGradient id="paint19_linear" x1="186.451" y1="136.668" x2="199.341" y2="110.42" gradientUnits="userSpaceOnUse"><stop offset="4.47534e-07" stop-color="#B45FF9"></stop><stop offset="0.4991" stop-color="#1BB9E8"></stop><stop offset="1" stop-color="#21E6AE"></stop></linearGradient><linearGradient id="paint20_linear" x1="180.434" y1="140.226" x2="209.437" y2="136.483" gradientUnits="userSpaceOnUse"><stop offset="4.47534e-07" stop-color="#B45FF9"></stop><stop offset="0.4991" stop-color="#1BB9E8"></stop><stop offset="1" stop-color="#21E6AE"></stop></linearGradient><linearGradient id="paint21_linear" x1="181.91" y1="136.975" x2="197.09" y2="129.47" gradientUnits="userSpaceOnUse"><stop offset="4.47534e-07" stop-color="#B45FF9"></stop><stop offset="0.4991" stop-color="#1BB9E8"></stop><stop offset="1" stop-color="#21E6AE"></stop></linearGradient><linearGradient id="paint22_linear" x1="176.091" y1="131.413" x2="183.596" y2="116.233" gradientUnits="userSpaceOnUse"><stop offset="4.47534e-07" stop-color="#B45FF9"></stop><stop offset="0.4991" stop-color="#1BB9E8"></stop><stop offset="1" stop-color="#21E6AE"></stop></linearGradient><linearGradient id="paint23_linear" x1="178.232" y1="137.032" x2="162.369" y2="131.101" gradientUnits="userSpaceOnUse"><stop offset="4.47534e-07" stop-color="#B45FF9"></stop><stop offset="0.4991" stop-color="#1BB9E8"></stop><stop offset="1" stop-color="#21E6AE"></stop></linearGradient><linearGradient id="paint24_linear" x1="177.849" y1="132.331" x2="181.997" y2="134.283" gradientUnits="userSpaceOnUse"><stop offset="4.47534e-07" stop-color="#B45FF9"></stop><stop offset="0.4991" stop-color="#1BB9E8"></stop><stop offset="1" stop-color="#21E6AE"></stop></linearGradient><linearGradient id="paint25_linear" x1="168.24" y1="171.169" x2="230.264" y2="217.341" gradientUnits="userSpaceOnUse"><stop offset="4.47534e-07" stop-color="#B45FF9"></stop><stop offset="0.4798" stop-color="#1BB9E8"></stop><stop offset="0.6978" stop-color="#1BBBE6"></stop><stop offset="0.8039" stop-color="#1CC1DE"></stop><stop offset="0.8858" stop-color="#1DCBD1"></stop><stop offset="0.955" stop-color="#1FD9BF"></stop><stop offset="1" stop-color="#21E6AE"></stop></linearGradient><linearGradient id="paint26_linear" x1="471.512" y1="454.389" x2="573.429" y2="454.389" gradientUnits="userSpaceOnUse"><stop offset="4.47534e-07" stop-color="#B45FF9"></stop><stop offset="0.4798" stop-color="#1BB9E8"></stop><stop offset="0.7408" stop-color="#1BBAE6"></stop><stop offset="0.8348" stop-color="#1CC0DF"></stop><stop offset="0.9018" stop-color="#1DC9D4"></stop><stop offset="0.9556" stop-color="#1FD6C3"></stop><stop offset="1" stop-color="#21E6AE"></stop></linearGradient><linearGradient id="paint27_linear" x1="571.364" y1="454.389" x2="603.272" y2="454.389" gradientUnits="userSpaceOnUse"><stop stop-color="#F2E3FD"></stop><stop offset="1" stop-color="#B9EAF8"></stop></linearGradient><linearGradient id="paint28_linear" x1="470.706" y1="445.785" x2="608.29" y2="468.715" gradientUnits="userSpaceOnUse"><stop stop-color="#F2E3FD"></stop><stop offset="1" stop-color="#B9EAF8"></stop></linearGradient><linearGradient id="paint29_linear" x1="524.517" y1="468.472" x2="524.517" y2="438.795" gradientUnits="userSpaceOnUse"><stop offset="4.47534e-07" stop-color="#B45FF9"></stop><stop offset="0.4798" stop-color="#1BB9E8"></stop><stop offset="0.7408" stop-color="#1BBAE6"></stop><stop offset="0.8348" stop-color="#1CC0DF"></stop><stop offset="0.9018" stop-color="#1DC9D4"></stop><stop offset="0.9556" stop-color="#1FD6C3"></stop><stop offset="1" stop-color="#21E6AE"></stop></linearGradient><linearGradient id="paint30_linear" x1="531.414" y1="329.035" x2="535.617" y2="380.781" gradientUnits="userSpaceOnUse"><stop offset="4.47534e-07" stop-color="#B45FF9"></stop><stop offset="0.4798" stop-color="#1BB9E8"></stop><stop offset="0.6283" stop-color="#1BBCE5"></stop><stop offset="0.7572" stop-color="#1CC4DA"></stop><stop offset="0.8786" stop-color="#1ED2C8"></stop><stop offset="0.9952" stop-color="#21E5AF"></stop><stop offset="1" stop-color="#21E6AE"></stop></linearGradient><linearGradient id="paint31_linear" x1="572.167" y1="411.153" x2="601.874" y2="411.153" gradientUnits="userSpaceOnUse"><stop offset="4.47534e-07" stop-color="#B45FF9"></stop><stop offset="0.4991" stop-color="#1BB9E8"></stop><stop offset="0.65" stop-color="#1BBBE5"></stop><stop offset="0.7705" stop-color="#1CC3DB"></stop><stop offset="0.8804" stop-color="#1ED0CA"></stop><stop offset="0.9836" stop-color="#21E3B2"></stop><stop offset="1" stop-color="#21E6AE"></stop></linearGradient><linearGradient id="paint32_linear" x1="528.202" y1="411.153" x2="570.554" y2="411.153" gradientUnits="userSpaceOnUse"><stop offset="4.47534e-07" stop-color="#B45FF9"></stop><stop offset="0.4798" stop-color="#1BB9E8"></stop><stop offset="0.6283" stop-color="#1BBCE5"></stop><stop offset="0.7572" stop-color="#1CC4DA"></stop><stop offset="0.8786" stop-color="#1ED2C8"></stop><stop offset="0.9952" stop-color="#21E5AF"></stop><stop offset="1" stop-color="#21E6AE"></stop></linearGradient><clipPath id="clip0"><rect width="656.9" height="556.11" fill="white" transform="translate(9 1)"></rect></clipPath></defs></svg> 